<svg xmlns="http://www.w3.org/2000/svg" width="111.594" height="42.135" viewBox="0 0 111.594 42.135">
  <g id="logout" transform="translate(-1241 -488)">
    <g id="Path_22" data-name="Path 22" transform="translate(1241 488)" fill="#e84757">
      <path d="M 110.0171813964844 41.63520431518555 L 1.577312588691711 41.63520431518555 C 1.067755460739136 41.63520431518555 0.4999983608722687 40.87920379638672 0.4999983608722687 39.79436111450195 L 0.4999983608722687 2.340847015380859 C 0.4999983608722687 1.256004095077515 1.067755460739136 0.5000040531158447 1.577312588691711 0.5000040531158447 L 110.0171813964844 0.5000040531158447 C 110.526725769043 0.5000040531158447 111.094482421875 1.256004095077515 111.094482421875 2.340847015380859 L 111.094482421875 39.79436111450195 C 111.094482421875 40.87920379638672 110.526725769043 41.63520431518555 110.0171813964844 41.63520431518555 Z" stroke="none"/>
      <path d="M 1.577301025390625 1.000003814697266 C 1.428932189941406 1.000003814697266 0.9999923706054688 1.461036682128906 0.9999923706054688 2.340835571289063 L 0.9999923706054688 39.79435729980469 C 0.9999923706054688 40.67417144775391 1.428932189941406 41.13520431518555 1.577301025390625 41.13520431518555 L 110.0171813964844 41.13520431518555 C 110.1655502319336 41.13520431518555 110.5944900512695 40.67417144775391 110.5944900512695 39.79435729980469 L 110.5944900512695 2.340835571289063 C 110.5944900512695 1.461036682128906 110.1655502319336 1.000003814697266 110.0171813964844 1.000003814697266 L 1.577301025390625 1.000003814697266 M 1.577301025390625 3.814697265625e-06 L 110.0171813964844 3.814697265625e-06 C 110.8883056640625 3.814697265625e-06 111.5944900512695 1.04803466796875 111.5944900512695 2.340835571289063 L 111.5944900512695 39.79435729980469 C 111.5944900512695 41.08717346191406 110.8883056640625 42.13520431518555 110.0171813964844 42.13520431518555 L 1.577301025390625 42.13520431518555 C 0.7061767578125 42.13520431518555 -7.62939453125e-06 41.08717346191406 -7.62939453125e-06 39.79435729980469 L -7.62939453125e-06 2.340835571289063 C -7.62939453125e-06 1.04803466796875 0.7061767578125 3.814697265625e-06 1.577301025390625 3.814697265625e-06 Z" stroke="none" fill="#6a6a6a"/>
    </g>
    <g id="Group_2" data-name="Group 2" transform="translate(4.812)">
      <g id="Layer_2" data-name="Layer 2" transform="translate(1247.188 492)">
        <g id="Layer_1" data-name="Layer 1" transform="translate(0 0)">
          <path id="Path_1" data-name="Path 1" d="M49.735,106.659a1.1,1.1,0,0,0,.78-.307.91.91,0,0,0,.327-.706.959.959,0,0,0-.327-.723,1.129,1.129,0,0,0-.78-.293,1.06,1.06,0,0,0-.753.293.984.984,0,0,0-.312.723.93.93,0,0,0,.312.706A1.033,1.033,0,0,0,49.735,106.659Z" transform="translate(-36.692 -78.892)" fill="#fff" fill-rule="evenodd"/>
          <path id="Path_2" data-name="Path 2" d="M51.071,117.391v-2.657a1.112,1.112,0,0,0-1.262-1.255h-.64v4.064a1.761,1.761,0,0,0,2.017,1.968,1.2,1.2,0,0,0,.836-.246,1.068,1.068,0,0,0,.246-.8v-.492h-.492C51.313,117.967,51.071,117.775,51.071,117.391Z" transform="translate(-37.069 -85.565)" fill="#fff" fill-rule="evenodd"/>
          <path id="Path_3" data-name="Path 3" d="M69.033,112.446a2.926,2.926,0,0,0-2.214.827,2.492,2.492,0,0,0-.711,1.8v2.46a1.053,1.053,0,0,0,.342.8,1.3,1.3,0,0,0,.908.32h.654v-3.476a1.23,1.23,0,0,1,.246-.814.8.8,0,0,1,.637-.28q1.021,0,1.023,1.188v2.27a1.011,1.011,0,0,0,.354.8,1.4,1.4,0,0,0,.952.32h.61v-3.51a2.568,2.568,0,0,0-.824-2,2.883,2.883,0,0,0-1.978-.706Z" transform="translate(-49.84 -84.785)" fill="#fff" fill-rule="evenodd"/>
          <path id="Path_4" data-name="Path 4" d="M122.224,31.61c-.015-.2-.079-.723-.15-1.181a17.556,17.556,0,0,0-3.69-8.462c-.89-1.092-1.205-1.368-1.589-1.368a.817.817,0,0,0-.8.59c-.118.369.015.637.738,1.464A15.9,15.9,0,0,1,120.1,36.977c-.246.967-.212,1.186.207,1.476.566.379,1.075.1,1.336-.738A18.655,18.655,0,0,0,122.224,31.61Z" transform="translate(-87.426 -15.532)" fill="#fff" fill-rule="evenodd"/>
          <path id="Path_5" data-name="Path 5" d="M19,97.334a.928.928,0,0,0,.089,1.168,19.958,19.958,0,0,0,3.69,3.567s.184.121.261.165a.978.978,0,0,0,1.2-.03.738.738,0,0,0,.221-.873c-.071-.194-.3-.389-.937-.809l-.084-.057a16.221,16.221,0,0,1-2.706-2.59c-.492-.578-.7-.787-.9-.844A.738.738,0,0,0,19,97.334Z" transform="translate(-14.19 -73.138)" fill="#fff" fill-rule="evenodd"/>
          <path id="Path_6" data-name="Path 6" d="M82.468,23.949a14.331,14.331,0,0,0-6.192-8.479,14.693,14.693,0,0,0-6.236-2.14c-.492-.047-.576-.032-.827.133a.822.822,0,0,0-.032,1.36,3.1,3.1,0,0,0,.856.207,12.6,12.6,0,0,1,10.332,7.9,15.251,15.251,0,0,1,.526,1.668c.261,1.07.418,1.282.959,1.282a.681.681,0,0,0,.585-.246C82.731,25.356,82.731,24.947,82.468,23.949Z" transform="translate(-51.898 -10.033)" fill="#fff" fill-rule="evenodd"/>
          <path id="Path_7" data-name="Path 7" d="M50.136,2.032c.285.246.492.246,1.363.039a16.589,16.589,0,0,1,7.845.2,18.818,18.818,0,0,1,3.579,1.505c.632.359.856.45,1.107.438a.819.819,0,0,0,.492-1.419,8.55,8.55,0,0,0-1.095-.667A17.874,17.874,0,0,0,55.8.012a18.742,18.742,0,0,0-5.345.6A.8.8,0,0,0,50.136,2.032Z" transform="translate(-37.555 0)" fill="#fff" fill-rule="evenodd"/>
          <path id="Path_8" data-name="Path 8" d="M12.115,29.495a4.8,4.8,0,0,0,2.177,1.23.822.822,0,0,0,.807-.836.839.839,0,0,0-.113-.391,1.889,1.889,0,0,0-.684-.512,5.276,5.276,0,0,1-1.006-.7,10.171,10.171,0,0,0-.952-.77l-.47-.332-.15.182a10.735,10.735,0,0,0-.834,1.2c.025.022.167.093.322.2A8,8,0,0,1,12.115,29.495Z" transform="translate(-8.205 -20.494)" fill="#fff" fill-rule="evenodd"/>
          <path id="Path_9" data-name="Path 9" d="M5.556,86.121c-.125-.3-.371-.43-1.51-.819-.63-.212-1.5-.551-1.943-.738-.6-.258-.8-.322-.8-.246a10.917,10.917,0,0,0,.492,1.874,15.444,15.444,0,0,0,2.684,1,.8.8,0,0,0,.984-.344A.738.738,0,0,0,5.556,86.121Z" transform="translate(-0.974 -63.554)" fill="#fff" fill-rule="evenodd"/>
          <path id="Path_10" data-name="Path 10" d="M8.25,101.586a3.758,3.758,0,0,0-1.092-.352,5.246,5.246,0,0,0,1.06,1.771c.14-.022.386-.362.433-.615a.94.94,0,0,0-.061-.443A.891.891,0,0,0,8.25,101.586Z" transform="translate(-5.385 -76.328)" fill="#fff" fill-rule="evenodd"/>
          <path id="Path_11" data-name="Path 11" d="M4.574,71.447a11.891,11.891,0,0,1-.315-1.86A16.845,16.845,0,0,1,.488,67.866,4.953,4.953,0,0,0,.021,67.6a5.746,5.746,0,0,0-.039.984v.984L.823,70a21.141,21.141,0,0,0,3.751,1.446Z" transform="translate(0.025 -50.971)" fill="#fff" fill-rule="evenodd"/>
          <path id="Path_12" data-name="Path 12" d="M4.773,56.295c.1.039.2.074.3.118a12.178,12.178,0,0,1,.216-1.722A12.117,12.117,0,0,1,2,52.779c-.332-.276-.492-.364-.529-.3a8.443,8.443,0,0,0-.234.881c-.133.6-.157.8-.086.89A13.734,13.734,0,0,0,4.773,56.295Z" transform="translate(-0.831 -39.555)" fill="#fff" fill-rule="evenodd"/>
          <path id="Path_13" data-name="Path 13" d="M8.9,42.331a12.1,12.1,0,0,1,.674-1.547,8.157,8.157,0,0,1-2.5-1.535,4.7,4.7,0,0,0-1.109-.819,3.444,3.444,0,0,0-.386.716c-.283.6-.322.738-.246.819A10.356,10.356,0,0,0,8.9,42.331Z" transform="translate(-3.991 -28.977)" fill="#fff" fill-rule="evenodd"/>
          <path id="Path_14" data-name="Path 14" d="M22.618,21.4a4.484,4.484,0,0,0,1.993,1.164,10.242,10.242,0,0,0,1.129.317,12.137,12.137,0,0,1,2.33-1.348,14.287,14.287,0,0,1-2.878-.544,3.06,3.06,0,0,1-1.3-.716c-.637-.536-.849-.637-1.156-.576a1.1,1.1,0,0,0-.667.669C21.993,20.678,22.131,20.933,22.618,21.4Z" transform="translate(-16.62 -14.843)" fill="#fff" fill-rule="evenodd"/>
          <path id="Path_15" data-name="Path 15" d="M34.477,11.173a4.484,4.484,0,0,0,1.993,1.164,7.7,7.7,0,0,0,2.327.529,7.237,7.237,0,0,1,2.108-.7,19.574,19.574,0,0,1-5.166-2.115c-.637-.536-.849-.637-1.156-.576a1.112,1.112,0,0,0-.649.669C33.852,10.448,33.99,10.706,34.477,11.173Z" transform="translate(-25.564 -7.129)" fill="#fff" fill-rule="evenodd"/>
          <path id="Path_16" data-name="Path 16" d="M43.259,32.525a9.259,9.259,0,0,1-.411,11.224h0c-.647.755-.738.905-.7,1.186a.75.75,0,0,0,.851.738.984.984,0,0,0,.46-.276.086.086,0,0,0,.032-.02l.074-.079a10.823,10.823,0,1,0-17.219-2.017h0a10.823,10.823,0,0,0,1.5,2l.074.079a.086.086,0,0,0,.032.02,1,1,0,0,0,.46.276.738.738,0,0,0,.851-.738c.034-.278-.059-.43-.7-1.186h0a8.46,8.46,0,0,1-.544-.723l-.071-.1c-.064-.1-.128-.2-.189-.305-.02-.034-.042-.069-.061-.106-.061-.1-.118-.209-.175-.315a9.257,9.257,0,0,1,15.743-9.667Z" transform="translate(-18.755 -20.381)" fill="#fff" fill-rule="evenodd"/>
          <path id="Path_17" data-name="Path 17" d="M101.176,78.266h-.025c-.246.128-.33.293-.566,1.259a12.366,12.366,0,0,1-3.3,5.783c-.536.531-1.764,1.461-1.813,1.5a1,1,0,0,0-.413.421.78.78,0,0,0,.534,1.023c.352.118.738.084,1.336-.386.064-.052.177-.125.187-.135a14.447,14.447,0,0,0,4.937-7.18,3.463,3.463,0,0,0,.261-1.943A.841.841,0,0,0,101.176,78.266Z" transform="translate(-71.637 -58.936)" fill="#fff" fill-rule="evenodd"/>
          <path id="Path_18" data-name="Path 18" d="M102.128,106.623c-.2.052-.413.263-.89.846A16.1,16.1,0,0,1,95.38,112l-.052.017a1.072,1.072,0,0,0-.517.246.738.738,0,0,0,.157,1.095,1.647,1.647,0,0,0,1.675-.1,17.28,17.28,0,0,0,2.214-1.3,19.8,19.8,0,0,0,4.047-3.879.929.929,0,0,0,.079-1.168A.738.738,0,0,0,102.128,106.623Z" transform="translate(-71.351 -80.364)" fill="#fff" fill-rule="evenodd"/>
          <path id="Path_19" data-name="Path 19" d="M23.008,116.026c-.207-.111-.408-.229-.61-.347a16.4,16.4,0,0,1-2.489-1.968c-.544-.521-.782-.7-.984-.738a.738.738,0,0,0-.809.394.924.924,0,0,0,.219,1.151,18.357,18.357,0,0,0,3.092,2.514v.015c.18.113.357.219.526.317.113.074.246.148.354.216h.025c.135.074.266.138.389.194a.929.929,0,0,0,1.164-.138.738.738,0,0,0,.13-.888C23.916,116.557,23.655,116.38,23.008,116.026Z" transform="translate(-13.563 -85.172)" fill="#fff" fill-rule="evenodd"/>
          <path id="Path_20" data-name="Path 20" d="M62.763,51.314a2.706,2.706,0,1,0-3.791.613.807.807,0,0,0-.059.184L58,57.769a.637.637,0,0,0,0,.118.738.738,0,0,0,.738.738h3.621a.762.762,0,0,0,.133,0,.738.738,0,0,0,.6-.863L62.075,52.1a.737.737,0,0,0-.03-.106A2.775,2.775,0,0,0,62.763,51.314Z" transform="translate(-43.619 -35.463)" fill="#fff" fill-rule="evenodd"/>
        </g>
      </g>
      <text id="خروج" transform="translate(1315 513)" fill="#fff" font-size="21" font-family="BKoodakBold, B Koodak"><tspan x="-20.933" y="0">خروج</tspan></text>
    </g>
  </g>
</svg>
