<svg xmlns="http://www.w3.org/2000/svg" viewBox="0 0 141.62 137.96" fill="#0ab6ff"><defs><style>.cls-1{fill-rule:evenodd;}</style></defs><title>manlogin</title><g id="Layer_2" data-name="Layer 2"><g id="Layer_1-2" data-name="Layer 1"><path class="cls-1" d="M53,112.88a4.47,4.47,0,0,0,3.17-1.25,3.7,3.7,0,0,0,1.33-2.87,3.9,3.9,0,0,0-1.33-2.94A4.59,4.59,0,0,0,53,104.63a4.31,4.31,0,0,0-3.06,1.19,4,4,0,0,0-1.27,2.94,3.78,3.78,0,0,0,1.27,2.87A4.2,4.2,0,0,0,53,112.88Z"/><path class="cls-1" d="M56.9,129.38v-10.8q0-5.1-5.13-5.1h-2.6V130q0,8,8.2,8a4.88,4.88,0,0,0,3.4-1,4.34,4.34,0,0,0,1-3.26v-2h-2C57.88,131.72,56.9,130.94,56.9,129.38Z"/><path class="cls-1" d="M78,112.45q-5.77,0-9,3.36a10.13,10.13,0,0,0-2.89,7.33v10a4.28,4.28,0,0,0,1.39,3.26,5.28,5.28,0,0,0,3.69,1.3h2.66V123.57a5,5,0,0,1,1-3.31,3.25,3.25,0,0,1,2.59-1.14q4.15,0,4.16,4.83v9.23a4.11,4.11,0,0,0,1.44,3.26,5.68,5.68,0,0,0,3.87,1.3h2.48V123.47a10.44,10.44,0,0,0-3.35-8.15A11.72,11.72,0,0,0,78,112.45Z"/><path class="cls-1" d="M141.44,65.36c-.06-.8-.32-2.94-.61-4.8a71.37,71.37,0,0,0-15-34.4c-3.62-4.44-4.9-5.56-6.46-5.56A3.32,3.32,0,0,0,116.11,23c-.48,1.5.06,2.59,3,5.95a64.63,64.63,0,0,1,13.71,58.23c-1,3.93-.86,4.82.84,6,2.3,1.54,4.37.42,5.43-3C141.09,83.69,142.05,73.42,141.44,65.36Z"/><path class="cls-1" d="M19.51,98.36c-1,1.37-.92,3,.36,4.75,3,4.18,9.55,10.44,15,14.5,0,0,.75.49,1.06.67,1.94,1.07,3.57,1,4.87-.12a3,3,0,0,0,.9-3.55c-.29-.79-1.21-1.58-3.81-3.29l-.34-.23a65.94,65.94,0,0,1-11-10.53c-2-2.35-2.84-3.2-3.65-3.43A3,3,0,0,0,19.51,98.36Z"/><path class="cls-1" d="M124.25,56.57A58.26,58.26,0,0,0,99.08,22.1a59.73,59.73,0,0,0-25.35-8.7c-2-.19-2.34-.13-3.36.54a3.34,3.34,0,0,0-.13,5.53,12.6,12.6,0,0,0,3.48.84,51.21,51.21,0,0,1,42,32.1,62,62,0,0,1,2.14,6.78c1.06,4.35,1.7,5.21,3.9,5.21a2.77,2.77,0,0,0,2.38-1C125.32,62.29,125.32,60.63,124.25,56.57Z"/><path class="cls-1" d="M51.12,8.26c1.16,1,2,1,5.54.16a67.44,67.44,0,0,1,31.89.81,76.5,76.5,0,0,1,14.55,6.12c2.57,1.46,3.48,1.83,4.5,1.78a3.33,3.33,0,0,0,2-5.77,34.76,34.76,0,0,0-4.45-2.71,72.66,72.66,0,0,0-31-8.6C67.53-.26,57,.9,52.42,2.47,49.6,3.43,48.92,6.47,51.12,8.26Z"/><path class="cls-1" d="M15.87,36.59c3,2.7,7.09,5,8.85,5A3.34,3.34,0,0,0,28,38.19a3.41,3.41,0,0,0-.46-1.59,7.68,7.68,0,0,0-2.78-2.08,21.45,21.45,0,0,1-4.09-2.86,41.35,41.35,0,0,0-3.87-3.13l-1.91-1.35-.61.74a43.64,43.64,0,0,0-3.39,4.86c.1.09.68.38,1.31.8A32.52,32.52,0,0,1,15.87,36.59Z"/><path class="cls-1" d="M18.6,91.74c-.51-1.21-1.51-1.75-6.14-3.33-2.56-.86-6.11-2.24-7.9-3-2.43-1.05-3.26-1.31-3.26-1a44.38,44.38,0,0,0,2,7.62c.39.48,8.51,3.59,10.91,4.06,2,.42,3.13,0,4-1.4A3,3,0,0,0,18.6,91.74Z"/><path class="cls-1" d="M11.62,102.68c-1.31-.67-4.25-1.6-4.44-1.43-.42.42,3.74,7.29,4.31,7.2s1.57-1.47,1.76-2.5a3.82,3.82,0,0,0-.25-1.8A3.62,3.62,0,0,0,11.62,102.68Z"/><path class="cls-1" d="M18.67,83.24a48.34,48.34,0,0,1-1.28-7.56,68.48,68.48,0,0,1-15.33-7A20.13,20.13,0,0,0,.16,67.6a23.36,23.36,0,0,0-.16,4v4l3.42,1.76A85.94,85.94,0,0,0,18.67,83.24Z"/><path class="cls-1" d="M16,68.05c.41.16.82.3,1.23.48a49.51,49.51,0,0,1,.88-7A49.26,49.26,0,0,1,4.72,53.76c-1.35-1.12-2-1.48-2.15-1.22a34.32,34.32,0,0,0-.95,3.58c-.54,2.43-.64,3.26-.35,3.62C2.77,61.53,10.51,65.93,16,68.05Z"/><path class="cls-1" d="M19.94,54.29A49.17,49.17,0,0,1,22.68,48a33.16,33.16,0,0,1-10.16-6.24c-1.8-1.63-4.06-3.33-4.51-3.33a14,14,0,0,0-1.57,2.91c-1.15,2.43-1.31,3-1,3.33C10.84,49.7,14.3,52,19.94,54.29Z"/><path class="cls-1" d="M24.36,26.67a18.23,18.23,0,0,0,8.1,4.73c1.61.51,3.09,1,4.59,1.29a49.34,49.34,0,0,1,9.47-5.48A58.08,58.08,0,0,1,34.82,25a12.44,12.44,0,0,1-5.28-2.91c-2.59-2.18-3.45-2.59-4.7-2.34a4.48,4.48,0,0,0-2.71,2.72C21.82,23.72,22.38,24.76,24.36,26.67Z"/><path class="cls-1" d="M36.21,16.44a18.23,18.23,0,0,0,8.1,4.73c1.6.51,8.43,2.8,9.46,2.15a29.42,29.42,0,0,1,8.57-2.86c.92-.14-12.2-2.46-21-8.6-2.59-2.18-3.45-2.59-4.7-2.34A4.52,4.52,0,0,0,34,12.24C33.67,13.49,34.23,14.54,36.21,16.44Z"/><path class="cls-1" d="M99.59,49.37A37.64,37.64,0,0,1,97.92,95l0,0c-2.63,3.07-3,3.68-2.86,4.82a3.05,3.05,0,0,0,3.46,3,4,4,0,0,0,1.87-1.12.35.35,0,0,0,.13-.08l.3-.32a44,44,0,1,0-70-8.2l0,0a44,44,0,0,0,6.09,8.14l.3.32a.35.35,0,0,0,.13.08,4.07,4.07,0,0,0,1.87,1.12,3,3,0,0,0,3.46-3c.14-1.13-.24-1.75-2.86-4.82l0,0A34.39,34.39,0,0,1,37.6,92l-.29-.42c-.26-.41-.52-.82-.77-1.24-.08-.14-.17-.28-.25-.43-.25-.42-.48-.85-.71-1.28a37.63,37.63,0,0,1,64-39.3Z"/><path class="cls-1" d="M120.06,78.58l-.1,0c-1,.52-1.34,1.19-2.3,5.12a50.27,50.27,0,0,1-13.4,23.51c-2.18,2.16-7.17,5.94-7.37,6.08A4.07,4.07,0,0,0,95.21,115a3.17,3.17,0,0,0,2.17,4.16c1.43.48,3,.34,5.43-1.57.26-.21.72-.51.76-.55a58.73,58.73,0,0,0,20.07-29.19c1.25-4.12,1.63-6.94,1.06-7.9A3.42,3.42,0,0,0,120.06,78.58Z"/><path class="cls-1" d="M125.09,106.75c-.81.21-1.68,1.07-3.62,3.44A65.44,65.44,0,0,1,97.66,128.6l-.21.07a4.36,4.36,0,0,0-2.1,1,3,3,0,0,0,.64,4.45c.89.82,3.48,1.23,6.81-.4a70.25,70.25,0,0,0,9-5.29c5.73-4,13.19-11.15,16.45-15.77,1.24-1.77,1.35-3.39.32-4.75A3,3,0,0,0,125.09,106.75Z"/><path class="cls-1" d="M38.37,125.43c-.84-.45-1.66-.93-2.48-1.41a66.67,66.67,0,0,1-10.12-8c-2.21-2.12-3.18-2.86-4-3a3,3,0,0,0-3.29,1.6c-.86,1.47-.58,3,.89,4.68a74.63,74.63,0,0,0,12.57,10.22l0,.06c.73.46,1.45.89,2.14,1.29.46.3,1,.6,1.44.88l.1,0c.55.3,1.08.56,1.58.79,2,.89,3.59.7,4.73-.56a3,3,0,0,0,.53-3.61C42.06,127.59,41,126.87,38.37,125.43Z"/><path class="cls-1" d="M77.8,64.44a11,11,0,1,0-15.41,2.49,3.28,3.28,0,0,0-.24.75l-3.7,23a2.59,2.59,0,0,0,0,.48,3,3,0,0,0,3,3H76.17a3.1,3.1,0,0,0,.54,0,3,3,0,0,0,2.44-3.51L75,67.63a3,3,0,0,0-.12-.43A11.28,11.28,0,0,0,77.8,64.44Z"/></g></g></svg>